<svg viewBox="0 0 270 263.2590560045322" preserveAspectRatio="xMidYMid meet" class="css-8aabad" id="cghbgbhd"><defs id="SvgjsDefs1469"><linearGradient id="SvgjsLinearGradient1476"><stop id="SvgjsStop1477" stop-color="#905e26" offset="0"></stop><stop id="SvgjsStop1478" stop-color="#f5ec9b" offset="0.5"></stop><stop id="SvgjsStop1479" stop-color="#905e26" offset="1"></stop></linearGradient></defs><g id="SvgjsG1470" featurekey="rootContainer" transform="matrix(2.5809711372993354,0,0,2.5809711372993354,0.030434266996216174,0)" fill="#111"><path xmlns="http://www.w3.org/2000/svg" d="M50.8 102h5.8l1.8-.2 1.7-.3h1.7l1.9-.3 1.8-.4.9-.2.9-.3 1.7-.6 2-.8a54 54 0 0 0 15.3-9.4l1.4-1.2.7-.5.6-.4 1-.5.8-.5 1.5-1.2 1.5-1.5.8-1 .9-1.1a50.9 50.9 0 0 0 3.9-5.8 34.8 34.8 0 0 0 1.6-3.1l.2-.4.2-.4.3-.8.3-.9.2-.4v-.4l.4-1.2.2-.6v-.3h.1v-.2l.7-2.5c.2-.9.4-1.7.5-2.6a25.4 25.4 0 0 0 .2-2.6v-3.1c0-.3 0-1 .1-1.5v-2.1a21.3 21.3 0 0 0 .2-2.6v-2.6c0-.9-.1-1.1-.1-1.6l-.2-1.5c-.1-1-.4-2-.5-3s-.2-1-.3-1.4l-.3-1.4-.3-1.4v-1.7l-.4-1.4-.2-.7-.2-.7-.4-1.4-.5-1.4-.4-1-.5-1-1-2.1a40.7 40.7 0 0 1-1.8-4.1 3.6 3.6 0 0 0-.8-1.2l-.7-.6-.2-.3-.3-.5a25.7 25.7 0 0 0-1.6-2.3l-.8-1.1-.9-1.1-.4-.5-.2-.3-.2-.2h-.1l-.9-1-.5-.5-.5-.5-.9-1.1-1.1-1a47.9 47.9 0 0 0-3.8-3l-.1-.5-1.3-.9A29 29 0 0 0 72 .4h-3.1a.8.8 0 0 0-.6 1.2A3.9 3.9 0 0 0 69.9 3l-.6.3-.4-.2a.9.9 0 0 0 0-.3c-.1-.5-.2-.9-1.3-1.3L65.3.7l-.6-.2h-.6L62.8 0l-1.3 1.2A48.5 48.5 0 0 0 39 2.4 31.1 31.1 0 0 0 31.4 4h-.5l-.5.2-1 .4-1 .5-.9.6-1.8 1.5-.8.6-.7.7c-1 .9-1.9 1.9-2.8 2.8L20 12.8l-1.4 1.5-.5.5-.5.5-1.1 1a55.1 55.1 0 0 0-7 7l.2-.5.6-1.1.6-1.1.6-1.1.6-1.2.6-1.2 1.2-2.4.4-.8.3-.6a1 1 0 0 0 0-.8 3.7 3.7 0 0 1-.2-1.2 17.1 17.1 0 0 0-2.1 1.1l-1.5 1.1-.8.6-.7.7-.8 1-.5 1-.5 1-.2.5-.3.5-.3.6-.4.8-.4.8-.7 1.7-.5 1.3-.5 1.3v.7l-.2.6-.3 1.3v.2h-.4v.3l-.2.7-.3 1.4-.2.7-.2.7-.4 1.7-.4 1.9-.2.9v2.8l-.6 1.9a38.3 38.3 0 0 0-.1 4.1 52.7 52.7 0 0 0-.7 8.7 5.2 5.2 0 0 0 0 .7c.5 3 .8 6 1.5 9l.4 1.8.5 1.8a18.3 18.3 0 0 0 .6 1.7l.4.8.4.8.9 1.7.5.8.5.8.5.8.5.8L7.8 77c1.4 2 2.9 4 4.5 5.9a35.6 35.6 0 0 0 2.6 2.7l.7.6.3.3.4.3 1.5 1.1 1 1a34 34 0 0 0 8.2 6.2l1.4.7 1.5.7.7.3.8.3 1.5.6.9.4.8.4.8.4 1 .4 1.9.7 1.9.6 1.6.4 1.6.4 1.6.3h5.7z"></path></g><g id="SvgjsG1471" featurekey="symbolFeature-0" transform="matrix(0.8447640109082267,0,0,0.8447640109082267,93.05788771938305,47.99143857274635)" fill="#fff"><path xmlns="http://www.w3.org/2000/svg" d="M97,69.529L41.253,88.625c-0.374,0.078-0.763,0.116-1.144,0.116c-1.992,0-3.852-1.112-5.128-2.815l-0.039,0.022  l-5.711-8.832l0.031-0.023c-0.623-0.871-0.958-1.991-0.958-3.144l-0.015-0.171c-0.524-3.779,2.199-6.827,7.452-8.837l-2.221-2.788  c-5.104,1.082-8.51,5.544-8.198,8.676L9.139,46.014l0.008-0.007c-0.615-0.879-0.958-1.993-0.958-3.144l-0.015-0.179  c-0.285-5.517,4.944-7.183,6.719-7.961l-2.334-2.918c-2.404,1.058-7.23,2.659-6.906,8.852L3.622,37.47l0.42-0.303l-0.436,0.288  c-0.84-1.206-1.307-2.708-1.307-4.256c0-2.957,1.673-5.517,4.023-6.412l47.614-16.123l40.557,42.93L39.557,73.91  c-1.938,1.121-3.929,4.016-3.929,6.918c0,2.918,2.131,5.579,4.482,5.579c0.203,0,0.412-0.022,0.623-0.054l51.49-17.657  c-1.347-1.376-3.081-3.688-3.19-6.48c-0.102-2.522,1.112-4.871,3.603-6.981c0,0-1.485,2.833-1.268,6.888  c0.179,3.393,3.773,6.062,3.805,6.084L97,69.529z"></path></g><g id="SvgjsG1472" featurekey="nameFeature-0" transform="matrix(2.220149903141997,0,0,2.220149903141997,31.114737669501505,118.63668267881805)" fill="#fff"><path d="M1.76 25.08 l0 -11.2 c0 -0.36 -0.04 -0.72 0.04 -1.08 c0.04 -0.16 0 -0.32 0 -0.48 l0 -0.6 c0.04 -0.16 0.12 -0.24 0.28 -0.28 c0.08 -0.04 0.16 -0.04 0.24 -0.08 c0.12 0 0.24 -0.04 0.32 -0.12 c0.16 -0.08 0.32 -0.12 0.52 -0.16 l0.48 0 c0.28 0 0.6 0 0.92 -0.08 c0.28 -0.04 0.52 -0.04 0.8 0.04 c0.36 0.08 0.72 0.08 1.08 0 c0.24 -0.04 0.52 -0.08 0.76 0 c0.16 0.04 0.36 0 0.52 0 c0.32 -0.04 0.6 -0.08 0.88 0 c0.04 0.04 0.08 0.04 0.12 0 c0.48 -0.12 0.88 0.12 1.36 0.16 c0.24 0.04 0.52 0.12 0.72 0.32 c0.04 0.08 0.12 0.12 0.2 0.12 c0.16 0.04 0.28 0.12 0.36 0.2 c0.2 0.12 0.4 0.28 0.56 0.4 c0.12 0.12 0.24 0.28 0.4 0.36 c0.4 0.28 0.6 0.72 0.92 1.08 c0.2 0.2 0.36 0.4 0.36 0.72 c0 0.08 0.08 0.16 0.12 0.24 c0.04 0.04 0.08 0.12 0.08 0.16 c0.04 0.48 0.28 0.88 0.28 1.32 c0.04 0.56 0.24 1.12 0.44 1.64 c0.08 0.32 0.16 0.6 0.2 0.92 c0.08 0.4 0.12 0.8 0.2 1.2 c0.04 0.08 0.04 0.12 0.04 0.2 c-0.04 0.6 0.08 1.16 -0.12 1.76 c-0.08 0.28 -0.04 0.56 -0.04 0.88 c0 0.16 -0.04 0.32 -0.12 0.44 c-0.2 0.28 -0.28 0.64 -0.2 0.96 c0.04 0.32 0 0.6 -0.12 0.88 c-0.16 0.36 -0.2 0.72 -0.28 1.12 c-0.04 0.16 -0.08 0.32 -0.2 0.48 c-0.04 0.12 -0.08 0.2 -0.12 0.32 c-0.08 0.2 -0.2 0.36 -0.32 0.52 c-0.08 0.08 -0.16 0.2 -0.24 0.32 c-0.04 0.12 -0.08 0.24 0 0.32 c0.12 0.24 0.24 0.44 0.4 0.64 c0.32 0.52 0.68 1.08 1 1.6 c0.4 0.76 0.8 1.52 1.04 2.36 c0.16 0.4 0.28 0.76 0.52 1.08 c0.16 0.2 0.24 0.44 0.32 0.68 c0.2 0.44 0.36 0.88 0.64 1.28 c0.12 0.16 0.16 0.32 0.2 0.48 c0.08 0.28 0.16 0.48 0.36 0.64 c0.16 0.12 0.24 0.28 0.28 0.48 c0 0.16 0.08 0.36 0.16 0.52 s0.04 0.28 -0.08 0.4 c-0.12 0.16 -0.24 0.28 -0.4 0.36 c-0.4 0.28 -0.8 0.52 -1.2 0.76 c-0.2 0.12 -0.44 0.2 -0.64 0.24 c-0.12 0.08 -0.28 0.04 -0.36 -0.08 c-0.2 -0.16 -0.4 -0.36 -0.56 -0.6 c-0.4 -0.64 -0.8 -1.32 -1.04 -2.04 c-0.24 -0.68 -0.52 -1.28 -0.84 -1.92 c-0.2 -0.44 -0.4 -0.92 -0.56 -1.4 c-0.16 -0.44 -0.36 -0.92 -0.6 -1.36 l-1.2 -2.04 l-0.12 -0.24 c-0.12 -0.12 -0.2 -0.16 -0.36 -0.12 c-0.12 0.04 -0.24 0.08 -0.32 0.12 c-0.36 0.16 -0.76 0.24 -1.12 0.24 c-0.28 0 -0.56 -0.04 -0.8 0.08 l-0.36 0 c-0.24 0.04 -0.48 -0.16 -0.72 -0.08 s-0.44 0.04 -0.68 0 c-0.16 -0.04 -0.36 -0.04 -0.52 -0.08 c-0.56 0 -0.6 0.04 -0.6 0.56 l0 5.08 c0 0.72 -0.04 1.4 -0.16 2.12 c-0.04 0.36 -0.24 0.68 -0.36 1 c-0.04 0.08 -0.12 0.12 -0.2 0.16 c-0.16 0.04 -0.32 0.04 -0.44 0.16 c-0.04 0.04 -0.12 0.04 -0.2 0.04 l-0.88 0 s-0.48 -0.12 -0.56 -0.4 c-0.28 -0.52 -0.4 -1.12 -0.44 -1.68 c-0.04 -0.36 -0.04 -0.68 -0.04 -1.04 l0 -11 l0 0 z M5.04 20.56 l0 5.36 l0 0.6 c0 0.12 0.08 0.2 0.2 0.24 c0.28 0.04 0.56 0.08 0.88 0.04 c0.52 0.08 1.04 0.04 1.56 0.04 c0.28 0.04 0.52 0 0.8 -0.04 c0.64 -0.12 1.16 -0.4 1.64 -0.76 c0.24 -0.2 0.44 -0.4 0.56 -0.68 c0.16 -0.44 0.32 -0.84 0.4 -1.28 c0.04 -0.56 0.12 -1.08 0.24 -1.64 c0.04 -0.24 0.12 -0.48 0.16 -0.72 c0.08 -0.56 0.04 -1.12 0.04 -1.68 c0 -0.08 -0.04 -0.12 -0.04 -0.2 c-0.28 -1.04 -0.44 -2.12 -0.76 -3.16 c-0.32 -1.16 -0.16 -0.96 -1 -1.68 c-0.08 -0.08 -0.16 -0.12 -0.2 -0.2 c-0.24 -0.2 -0.48 -0.32 -0.8 -0.36 c-0.4 -0.08 -0.84 -0.08 -1.28 -0.12 c-0.56 0.08 -1.16 0 -1.76 0.04 l-0.32 0 c-0.24 0 -0.32 0.08 -0.32 0.36 l0 0.52 l0 5.32 z M25.766000000000002 26.4 c0.04 -2.96 0.04 -5.92 0.04 -8.88 c0 -0.52 0.04 -1.08 0.08 -1.6 c0 -0.28 -0.04 -0.56 -0.04 -0.8 c0 -0.04 -0.04 -0.08 -0.08 -0.08 c-0.16 -0.04 -0.32 -0.04 -0.44 -0.04 l-4.44 0 l-0.72 0 c-0.12 0 -0.24 -0.04 -0.32 -0.08 c-0.08 0 -0.16 -0.08 -0.2 -0.16 c0 -0.16 -0.04 -0.28 -0.08 -0.44 c-0.24 -0.68 -0.24 -1.36 -0.16 -2.08 c0.04 -0.16 0.12 -0.32 0.16 -0.48 c0.04 -0.08 0.12 -0.16 0.2 -0.16 c0.08 -0.04 0.16 -0.04 0.24 -0.04 l0.52 0 l12.6 0 l1 0 c0.12 0 0.2 0 0.32 0.04 c0.12 0 0.2 0.04 0.24 0.16 c0.2 0.96 0.28 1.92 0.04 2.84 c-0.08 0.2 -0.2 0.32 -0.36 0.36 c-0.24 0 -0.44 0.04 -0.64 0.04 l-3.88 0 l-0.6 0 c-0.08 0.04 -0.16 0.12 -0.16 0.2 l0 0.24 c0.08 0.4 0.04 0.8 0.04 1.16 l0 19.08 c0 0.4 -0.04 0.8 -0.04 1.2 l0 1.08 l0 0.68 c-0.04 0.12 -0.12 0.24 -0.24 0.28 c-0.6 0.08 -1.2 0.16 -1.84 0.16 c-0.28 -0.04 -0.56 -0.08 -0.8 -0.16 c-0.16 -0.04 -0.24 -0.16 -0.24 -0.32 c-0.04 -0.44 -0.08 -0.88 -0.08 -1.36 c-0.08 -1.48 -0.08 -2.96 -0.08 -4.44 l0 -2.68 l0 -2 l0 -1.72 l-0.04 0 z M36.612 14.84 c-0.16 -0.68 -0.2 -1.4 -0.16 -2.12 l0.12 -0.48 c0.04 -0.12 0.12 -0.2 0.24 -0.24 l1.32 -0.12 c0.08 0 0.12 0 0.2 -0.04 c0.96 -0.16 1.88 -0.16 2.84 -0.16 l7.64 0 c0.56 0 1.16 0.08 1.72 0.16 c0.08 0 0.16 0.08 0.16 0.12 c0.12 0.72 0.2 1.44 0.16 2.16 c0 0.24 -0.08 0.44 -0.16 0.64 c-0.08 0.08 -0.16 0.16 -0.24 0.16 c-0.36 0 -0.72 0.04 -1.08 0.04 l-6.32 0 l-0.8 0 c-0.2 0 -0.32 0.12 -0.32 0.32 s-0.04 0.36 0 0.52 c0.08 0.44 0.04 0.88 0.04 1.32 l0 1.36 c0 0.4 0 0.8 0.04 1.16 c0.04 0.16 0.04 0.36 0.04 0.52 l0 3.44 c0 0.28 -0.04 0.56 -0.04 0.84 c-0.04 0.12 0 0.24 0 0.36 c0 0.08 0.08 0.16 0.16 0.12 c0.24 0 0.48 -0.04 0.72 -0.08 c0.56 -0.12 1.12 -0.12 1.72 -0.08 c0.4 0 0.76 -0.08 1.12 -0.24 c0.16 -0.08 0.32 -0.2 0.48 -0.28 c0.32 -0.2 0.6 -0.2 0.92 -0.08 l0.24 0.36 c0.32 0.28 0.44 0.68 0.56 1.08 c0.08 0.2 0.16 0.44 0.24 0.68 c0.04 0.16 0.04 0.32 0.08 0.48 c0 0.08 -0.04 0.12 -0.04 0.16 c-0.16 0.16 -0.28 0.32 -0.44 0.48 c-0.04 0 -0.08 0.04 -0.16 0.04 c-0.24 0.04 -0.44 0.16 -0.64 0.32 s-0.44 0.24 -0.72 0.32 c-0.16 0 -0.32 0.04 -0.48 0.12 c-0.28 0.16 -0.56 0.16 -0.84 0.12 c-0.12 -0.04 -0.24 -0.04 -0.36 -0.08 c-0.72 -0.24 -1.4 -0.12 -2.04 0.12 c-0.08 0.04 -0.16 0.08 -0.2 0.16 c-0.08 0.12 -0.12 0.24 -0.24 0.32 c-0.04 0.04 -0.08 0.16 -0.08 0.2 l0 0.88 l0 4.88 c0 0.44 0.04 0.92 0.08 1.36 c0.04 0.56 0.04 1.12 0 1.72 c-0.08 0.08 -0.24 0.16 -0.32 0.28 s-0.12 0.28 -0.16 0.4 c-0.36 0.2 -0.8 0.24 -1.16 0.36 c-0.36 0.08 -0.68 -0.08 -1 -0.24 c-0.08 -0.04 -0.16 -0.12 -0.2 -0.16 c-0.24 -0.2 -0.36 -0.4 -0.36 -0.68 l0 -0.68 c-0.04 -1.36 0 -2.72 -0.04 -4.08 c-0.04 -1.28 0 -2.56 0 -3.84 l0 -5 c0 -1.96 0.04 -3.88 0.08 -5.84 c0 -1.04 0.04 -2.12 0.08 -3.2 c0 -0.12 -0.08 -0.24 -0.2 -0.24 l-0.52 0 l-1.32 0 c-0.12 0 -0.24 0 -0.36 -0.12 z M69.938 28.880000000000003 l-0.12 0.24 l0 0.44 c-0.04 1.56 -0.04 3.12 -0.08 4.68 c-0.04 1.2 -0.12 2.36 -0.2 3.56 c0 0.2 -0.08 0.4 -0.08 0.6 c-0.04 0.16 -0.12 0.24 -0.28 0.32 c-0.16 0.04 -0.32 0.08 -0.48 0.16 c-0.56 0.12 -1.08 0.16 -1.64 0 c-0.16 -0.08 -0.28 -0.2 -0.32 -0.36 c-0.04 -0.12 -0.08 -0.24 -0.08 -0.36 c-0.08 -0.68 -0.16 -1.32 -0.16 -2 c-0.08 -1.16 -0.04 -2.32 -0.08 -3.48 c-0.04 -0.96 -0.04 -1.92 -0.08 -2.84 c0 -0.12 0.04 -0.24 -0.08 -0.36 c-0.24 -0.08 -0.48 -0.04 -0.72 0 c-1.4 0.24 -2.84 0.48 -4.24 0.72 l-0.36 0.12 c-0.04 0.04 -0.12 0.12 -0.12 0.16 c-0.04 0.16 -0.04 0.28 -0.04 0.44 l-0.12 5.64 c0 0.4 -0.08 0.76 -0.12 1.12 c-0.04 0.2 0.04 0.48 -0.16 0.64 c-0.12 0.12 -0.36 0.12 -0.52 0.2 c-0.28 0.12 -0.6 0.16 -0.88 0.16 l-0.6 0 c-0.24 0 -0.44 -0.08 -0.64 -0.16 c-0.12 0 -0.2 -0.08 -0.2 -0.16 c-0.12 -0.52 -0.24 -1.04 -0.24 -1.56 c-0.04 -1.68 -0.04 -3.36 -0.04 -5.04 l0 -0.68 c-0.04 -0.2 -0.12 -0.28 -0.28 -0.28 c-0.36 0 -0.68 0.04 -1.04 0.08 c-0.68 0.04 -1.32 -0.08 -2 -0.2 c-0.08 -0.04 -0.16 -0.12 -0.2 -0.2 c-0.08 -0.36 -0.2 -0.68 -0.24 -1 c-0.04 -0.36 0 -0.64 0.04 -0.96 c0.04 -0.16 0.16 -0.28 0.32 -0.32 c0.28 -0.08 0.56 -0.12 0.88 -0.12 c0.76 -0.04 1.52 -0.2 2.24 -0.36 c0.08 0 0.16 -0.04 0.2 -0.08 c0.12 -0.24 0.08 -0.52 0.08 -0.76 l0 -6 l0 -3.16 c-0.04 -0.44 0.04 -0.88 0.24 -1.28 c0.36 -0.84 0.72 -1.68 1.12 -2.52 c0 -0.08 0.08 -0.16 0.16 -0.24 c0 -0.04 0.08 -0.04 0.08 -0.08 c0.4 -0.64 1.04 -0.96 1.56 -1.36 c0.28 -0.2 0.56 -0.32 0.92 -0.32 c0.2 -0.04 0.4 -0.08 0.6 -0.08 c0.12 -0.04 0.28 -0.04 0.4 -0.08 c0.36 -0.12 0.68 -0.2 1.04 -0.04 c0.08 0.04 0.2 0.04 0.28 0.04 c0.28 -0.12 0.52 -0.04 0.8 0 c0.44 0.12 0.92 0.28 1.28 0.56 c0.24 0.16 0.36 0.4 0.64 0.52 c0.24 0.08 0.36 0.32 0.52 0.48 c0.32 0.32 0.6 0.64 0.92 0.92 c0.24 0.24 0.44 0.52 0.64 0.8 c0.08 0.12 0.12 0.32 0.2 0.48 c0.12 0.36 0.24 0.68 0.24 1.08 c0 0.2 0.04 0.4 0.08 0.56 c0.08 0.36 0.16 0.68 0.24 1.04 c0.28 0.8 0.32 1.64 0.52 2.44 c0.12 0.64 0.12 1.24 0.12 1.88 l0 0.04 l0 2.76 c0 0.12 0 0.24 0.16 0.36 c0.84 -0.08 1.76 -0.04 2.64 -0.04 c0.12 0 0.24 0 0.36 0.04 c0.04 0 0.16 0.08 0.16 0.16 c0.04 0.28 0.12 0.6 0.16 0.92 c0.04 0.44 0 0.84 0 1.28 c0 0.16 -0.04 0.28 -0.08 0.44 s-0.16 0.28 -0.36 0.32 c-0.16 0.04 -0.28 0.04 -0.44 0.04 l-1.4 0 c-0.4 0 -0.76 0 -1.12 0.04 z M66.298 23.28 l0 -2.4 c0 -0.28 0 -0.56 -0.16 -0.84 c-0.08 -0.12 -0.08 -0.24 -0.12 -0.36 c-0.04 -0.4 -0.16 -0.76 -0.36 -1.12 l-0.24 -0.6 c-0.16 -0.52 -0.4 -1 -0.8 -1.4 c-0.24 -0.24 -0.44 -0.48 -0.68 -0.72 c-0.08 -0.08 -0.24 -0.16 -0.36 -0.2 c-0.2 -0.08 -0.44 -0.12 -0.68 -0.12 c-0.72 0.04 -1 0.28 -1.12 0.92 c-0.04 0.04 -0.04 0.08 -0.04 0.12 c0 0.32 -0.12 0.6 -0.2 0.88 c-0.12 0.36 -0.2 0.72 -0.24 1.08 c-0.04 0.28 -0.08 0.52 -0.2 0.8 c-0.2 0.56 -0.32 1.2 -0.32 1.8 c0 0.48 -0.04 0.96 -0.04 1.4 c0 0.2 0 0.4 0.04 0.6 c0.08 0.16 0.04 0.36 0.04 0.52 c-0.12 0.52 -0.12 1.04 -0.08 1.56 c0.04 0.48 0.08 0.96 0.08 1.48 c0 0.08 0 0.2 0.04 0.28 c0 0.04 0.04 0.08 0.08 0.08 c0.12 0.04 0.2 0.04 0.32 0 c0.6 -0.08 1.2 -0.16 1.8 -0.28 c0.84 -0.2 1.68 -0.32 2.48 -0.48 c0.2 0 0.36 -0.04 0.52 -0.08 s0.24 -0.12 0.24 -0.32 l0 -0.52 l0 -2.08 z M88.784 21.12 c-0.16 0.16 -0.2 0.32 -0.24 0.48 c-0.16 0.8 -0.44 1.6 -0.72 2.36 c-0.24 0.64 -0.4 1.32 -0.6 1.96 c-0.16 0.44 -0.32 0.92 -0.52 1.4 c-0.12 0.32 -0.28 0.64 -0.48 0.92 c-0.2 0.24 -0.32 0.48 -0.52 0.72 c-0.08 0.12 -0.2 0.24 -0.28 0.36 c-0.08 0.08 -0.2 0.12 -0.32 0.12 c-0.24 0 -0.44 -0.04 -0.68 0.04 c-0.04 0.04 -0.12 0 -0.2 0 c-0.12 -0.04 -0.28 -0.04 -0.44 0 c-0.24 0.08 -0.44 0.04 -0.68 0.04 c-0.08 0 -0.12 -0.04 -0.2 -0.04 c-0.36 -0.2 -0.48 -0.28 -0.48 -0.72 l0 -0.08 c0.12 -0.4 0 -0.76 -0.16 -1.12 c-0.08 -0.12 -0.12 -0.24 -0.2 -0.36 c-0.24 -0.64 -0.52 -1.24 -0.84 -1.8 c-0.52 -0.96 -0.88 -1.92 -1.16 -2.96 c-0.08 -0.36 -0.2 -0.76 -0.28 -1.12 c-0.12 -0.44 -0.28 -0.88 -0.48 -1.32 c-0.04 -0.04 -0.08 -0.04 -0.12 -0.04 c-0.04 -0.04 -0.08 0 -0.08 0.08 l0 0.32 c0 0.76 0 1.52 0.08 2.28 c0.04 0.64 0.08 1.24 0.12 1.84 c0.08 0.72 0.04 1.44 0.16 2.16 l0 0.12 c0.04 0.76 0.04 1.52 0.04 2.28 c0.04 0.24 0.04 0.44 0.04 0.68 c0.04 0.2 0.04 0.4 0.04 0.6 l0 7.76 c0 0.2 0 0.36 -0.04 0.56 c0 0.08 -0.08 0.16 -0.16 0.2 c-0.64 0.12 -1.28 0.16 -1.92 0.16 c-0.08 0 -0.12 0 -0.16 -0.04 c-0.64 -0.16 -0.64 -0.04 -0.72 -0.76 l0 -0.4 c-0.04 -0.32 -0.04 -0.68 -0.08 -1 c-0.04 -0.48 -0.08 -0.96 -0.08 -1.4 l0 -1.36 c-0.04 -0.72 0 -1.44 -0.04 -2.16 l0 -1.48 c-0.04 -0.2 -0.04 -0.36 -0.04 -0.56 l0 -2.48 l0 -0.4 c-0.08 -0.72 -0.04 -1.44 -0.04 -2.16 l0 -10.2 c-0.04 -0.64 0.04 -1.28 0.12 -1.92 c0.04 -0.12 0.16 -0.12 0.24 -0.16 c0.44 -0.32 0.96 -0.44 1.48 -0.6 c0.24 -0.04 0.44 -0.04 0.68 -0.04 c0.08 0 0.16 0.08 0.2 0.16 c0.16 0.24 0.24 0.52 0.36 0.8 c0.16 0.56 0.4 1.08 0.6 1.64 c0.36 0.56 0.6 1.2 0.88 1.8 c0.24 0.56 0.52 1.08 0.84 1.6 c0.24 0.4 0.36 0.84 0.6 1.2 c0.08 0.12 0.12 0.24 0.16 0.4 c0.16 0.48 0.28 0.96 0.44 1.48 c0.08 0.12 0.08 0.24 0.12 0.36 c0.08 0.88 0.4 1.68 0.84 2.4 c0.16 0.32 0.32 0.64 0.52 0.96 c0 0.04 0.08 0.08 0.08 0.04 c0.04 0 0.08 -0.04 0.08 -0.08 c0.12 -0.36 0.24 -0.72 0.32 -1.08 c0.08 -0.32 0.16 -0.64 0.24 -0.92 c0.16 -0.52 0.32 -1.04 0.44 -1.56 c0.12 -0.76 0.32 -1.48 0.6 -2.2 c0.28 -0.68 0.4 -1.4 0.48 -2.12 c0.04 -0.28 0.08 -0.56 0.16 -0.84 c0.16 -0.64 0.28 -1.28 0.52 -1.88 c0.24 -0.56 0.32 -1.16 0.4 -1.76 c0.04 -0.12 0.04 -0.24 0.08 -0.36 c0.04 -0.2 0.16 -0.32 0.36 -0.28 c0.64 0 1.32 0.04 1.96 0.08 c0.16 0 0.36 0 0.52 0.04 c0.16 0 0.32 0.04 0.48 0.08 c0.12 0.04 0.24 0.12 0.28 0.24 c0.12 0.28 0.16 0.56 0.16 0.88 c0.04 0.28 0.04 0.56 0.08 0.88 c0.12 0.84 0.16 1.68 0.16 2.52 l0 3.2 c0.08 5.88 0.04 11.76 0.04 17.68 l0 0.92 c0 0.12 0 0.24 -0.04 0.36 c0 0.04 -0.08 0.12 -0.12 0.12 c-0.68 0.16 -1.32 0.24 -2 0.2 l-0.08 0 c-0.68 -0.16 -0.76 -0.12 -0.76 -0.84 l0 -2.84 l0 -12.28 c0 -0.56 0 -1.12 -0.04 -1.76 z"></path></g></svg>